<?xml version="1.0" encoding="iso-8859-1"?>
<svg version="1.1" width="40" height="40" xmlns="http://www.w3.org/2000/svg" x="0px" y="0px"
     viewBox="0 0 512 512" style="enable-background:new 0 0 512 512;" xml:space="preserve">
<path style="fill:#EDEDED;" d="M370.12,64.771V33.928H0v370.12c0,40.882,33.142,74.024,74.024,74.024h222.072
	c40.882,0,74.024-33.142,74.024-74.024V348.53c78.232,0,141.88-63.647,141.88-141.88S448.353,64.771,370.12,64.771z M370.12,311.518
	V101.783c57.824,0,104.867,47.044,104.867,104.867S427.944,311.518,370.12,311.518z"/>
    <path style="fill:#D8D8DA;" d="M370.12,64.771V33.928H185.06v444.145h111.036c40.882,0,74.024-33.142,74.024-74.024V348.53
	c78.232,0,141.88-63.647,141.88-141.88S448.353,64.771,370.12,64.771z M370.12,311.518V101.783
	c57.824,0,104.867,47.044,104.867,104.867S427.944,311.518,370.12,311.518z"/>
    <rect x="166.554" y="33.928" style="fill:#C6C5CA;" width="37.012" height="197.398"/>
    <polygon style="fill:#95D5A7;" points="185.06,206.651 135.711,256 135.711,317.687 234.41,317.687 234.41,256 "/>
    <polygon style="fill:#80CB93;" points="234.41,256 185.06,206.651 185.06,317.687 234.41,317.687 "/>
</svg>
