<svg height="40" viewBox="0 0 58 58" width="40" xmlns="http://www.w3.org/2000/svg">
    <g fill="none" fill-rule="evenodd">
        <g>
            <path d="m57.39 6.39-2.17 2.17-3.2-2.193-2.58-3.577v-.01l2.17-2.17c.3823631-.3886856.9047679-.60758632 1.45-.60758632s1.0676369.21890072 1.45.60758632l2.88 2.88c.3886856.38236308.6075863.90476792.6075863 1.45s-.2189007 1.06763692-.6075863 1.45z"
                  fill="#ff5364"/>
            <path d="m11 14h45c1.1032019.0032948 1.9967052.8967981 2 2v40c-.0032948 1.1032019-.8967981 1.9967052-2 2h-48.71c-3.85271026.0547023-7.06562424-2.9334399-7.29-6.78v-5.22z"
                  fill="#2980ba"/>
            <path d="m11 2v40c-.0032948 1.1032019-.8967981 1.9967052-2 2h-2c-3.86599325 0-7 3.1340068-7 7v-44c0-3.86599325 3.13400675-7 7-7h2c1.1032019.0032948 1.9967052.89679813 2 2z"
                  fill="#3b97d3"/>
            <path id="Shape"
                  d="m45 31c-.5522847 0-1 .4477153-1 1v5h-24v-11h14.7c.5522847 0 1-.4477153 1-1s-.4477153-1-1-1h-19.7c-.5522847 0-1 .4477153-1 1s.4477153 1 1 1h3v27c0 .5522847.4477153 1 1 1s1-.4477153 1-1v-14h11v8h-7c-.5522847 0-1 .4477153-1 1s.4477153 1 1 1h20c1.1045695 0 2-.8954305 2-2v-15c0-.5522847-.4477153-1-1-1zm-12 16v-8h11v8z"
                  fill="#fff"/>
            <path d="m52.33 11.46-12.32 12.31-4.01-1.77-1.77-4.01 12.32-12.31 4.45 1.32z" fill="#f3d55b"/>
            <path id="Rectangle" d="m48.84 3.037h4.091v8.171h-4.091z" fill="#bdc3c7"
                  transform="matrix(.706 -.708 .708 .706 9.921 38.138)"/>
            <g fill="#ff5364">
                <path d="m55.23 8.57-.01-.01"/>
                <path d="m46.55 5.68-.01-.01"/>
                <path d="m34.23 17.99-.01-.01"/>
                <path d="m40.02 23.78-.01-.01"/>
            </g>
            <path d="m40.01 23.77-.01.02c-.4590745.454032-1.0581876.7394918-1.7.81l-3.42.39c-.509748.0504155-1.0152503-.13034-1.3774551-.4925449-.3622049-.3622048-.5429604-.8677071-.4925449-1.3774551l.38-3.4c.0703704-.6567831.3673986-1.2685198.84-1.73z"
                  fill="#f9eab0"/>
        </g>
    </g>
</svg>